<?xml version="1.0" encoding="UTF-8"?>
<svg version="1.1" xmlns="http://www.w3.org/2000/svg" width="512" height="512">
<path d="M0 0 C0.89033936 0.00248749 1.78067871 0.00497498 2.69799805 0.00753784 C50.42252938 0.21413522 93.65006079 17.9164673 129.4375 49.3125 C130.72801446 50.37639917 132.01945049 51.43918333 133.3125 52.5 C137.09026608 55.76051693 140.24001384 59.49345842 143.4375 63.3125 C144.23542969 64.24578125 145.03335937 65.1790625 145.85546875 66.140625 C178.79449412 105.00967158 195.04977788 155.21200272 190.87329102 206.08374023 C187.20219239 246.42972783 171.5309006 280.90420389 146.4375 312.3125 C147.9178833 315.7667277 149.33031302 318.14447102 152.4375 320.3125 C154.53449858 320.25065019 154.53449858 320.25065019 156.87168884 319.80058289 C165.31002458 318.51878892 173.09224769 318.73806766 180.2761116 323.81323624 C190.49909002 331.78465589 199.41060069 341.45194329 208.38553357 350.76381516 C212.37616265 354.8805529 216.43089241 358.93323451 220.47825623 362.99406433 C227.2512435 369.80739776 233.98060666 376.66134775 240.6809082 383.54614258 C250.14059162 393.26601714 259.68129801 402.90328579 269.23710549 412.52853167 C275.85559837 419.20147108 282.45385209 425.89441 289.04874301 432.59066558 C290.6477089 434.21382478 292.24733265 435.83633619 293.84760404 437.45820832 C298.39887144 442.07181544 302.93729667 446.6972996 307.45503807 451.34375191 C308.82665249 452.75085104 310.20254513 454.15379382 311.58289337 455.5523262 C313.45947911 457.45542037 315.31984637 459.372999 317.17652893 461.29548645 C317.73114935 461.85123142 318.28576977 462.40697638 318.85719687 462.9795621 C320.34745121 464.54296589 320.34745121 464.54296589 322.4375 467.3125 C322.32276547 471.1019061 320.21911585 472.92020612 317.6237793 475.54614258 C316.81591476 476.36991898 316.00805023 477.19369537 315.17570496 478.04243469 C313.85703178 479.36140999 313.85703178 479.36140999 312.51171875 480.70703125 C311.61258255 481.61378098 310.71344635 482.5205307 309.7870636 483.45475769 C307.88337495 485.36925543 305.97669535 487.28014329 304.06469727 489.1862793 C301.61293502 491.63213221 299.17995089 494.09577645 296.75142193 496.56467152 C294.43292908 498.91518197 292.09631902 501.24753525 289.76171875 503.58203125 C288.88867599 504.47146927 288.01563324 505.36090729 287.11613464 506.27729797 C286.29881363 507.08531357 285.48149261 507.89332916 284.6394043 508.72583008 C283.92294235 509.44434647 283.20648041 510.16286285 282.4683075 510.90315247 C280.4375 512.3125 280.4375 512.3125 278.68426514 512.24205399 C275.30847147 510.8453871 273.01890952 508.37719571 270.45845032 505.84898376 C269.86362309 505.27294783 269.26879587 504.69691189 268.65594357 504.10342032 C266.65961943 502.16601205 264.67417531 500.21782866 262.6887207 498.26928711 C261.26167356 496.87904047 259.83414085 495.48929209 258.40615845 494.1000061 C253.71237311 489.52631099 249.03578749 484.93526515 244.36328125 480.33984375 C243.56726619 479.55696338 242.77125114 478.77408301 241.95111442 477.96747899 C234.43790267 470.57486338 226.93307613 463.17380004 219.44382954 455.75690365 C209.88092697 446.28788368 200.28220537 436.85866658 190.6310361 427.47960657 C183.83983808 420.87344703 177.09376683 414.22323799 170.37868565 407.53973204 C166.37181279 403.55415599 162.34810742 399.59017764 158.27437782 395.67286491 C130.1797908 368.61166156 130.1797908 368.61166156 129.23488903 355.71662998 C129.32763312 352.72621888 129.66008235 349.90399126 130.12858582 346.9521637 C130.69360849 343.44931411 130.69360849 343.44931411 129.18314552 340.34972954 C127.36387713 338.45654235 127.36387713 338.45654235 124.4375 336.3125 C120.3797203 337.69402571 117.7164096 339.56497805 114.5 342.375 C78.21371477 372.68643505 28.87158253 384.46187195 -17.5625 380.5 C-26.39306987 379.66283746 -34.93970791 378.44865997 -43.5625 376.3125 C-44.33352051 376.12204102 -45.10454102 375.93158203 -45.89892578 375.73535156 C-76.45345867 368.02394116 -102.67361788 353.65681847 -126.5625 333.3125 C-127.76712891 332.29349609 -127.76712891 332.29349609 -128.99609375 331.25390625 C-133.98504803 326.93799808 -138.34167452 322.37219247 -142.5625 317.3125 C-143.70332031 316.00345703 -143.70332031 316.00345703 -144.8671875 314.66796875 C-180.09174169 273.68238935 -192.34262848 223.22668977 -189.5625 170.3125 C-188.91246146 162.47712228 -187.50976296 154.92173703 -185.5625 147.3125 C-185.33755859 146.41063965 -185.11261719 145.5087793 -184.88085938 144.57958984 C-178.98944849 121.4237483 -169.55202871 99.75933001 -155.5625 80.3125 C-154.57056641 78.89324219 -154.57056641 78.89324219 -153.55859375 77.4453125 C-147.27978219 68.72666809 -140.08815369 60.96125144 -132.5625 53.3125 C-132.03672363 52.77592773 -131.51094727 52.23935547 -130.96923828 51.68652344 C-117.59912478 38.22667763 -101.33751079 28.01387817 -84.5625 19.3125 C-83.52480469 18.77238281 -82.48710938 18.23226563 -81.41796875 17.67578125 C-66.08052564 10.17441305 -49.32673134 5.35752797 -32.5625 2.3125 C-31.66023682 2.13517334 -30.75797363 1.95784668 -29.82836914 1.77514648 C-19.89121669 0.0020359 -10.05951329 -0.04470428 0 0 Z M-85.5625 91.3125 C-86.32433594 91.93898437 -87.08617187 92.56546875 -87.87109375 93.2109375 C-111.84962881 113.57399154 -126.84288211 145.31097409 -130.28125 176.35546875 C-132.88749675 213.02391264 -123.06720754 248.38762901 -98.82421875 276.5546875 C-80.48391631 297.24239259 -57.4451896 311.57496691 -30.5625 318.3125 C-29.31210938 318.63089844 -28.06171875 318.94929688 -26.7734375 319.27734375 C5.04787457 326.47075863 41.26494351 320.14014833 69.02661133 303.02001953 C85.93435305 292.17964924 100.89184444 278.49339051 111.4375 261.3125 C112.12199219 260.22710937 112.80648437 259.14171875 113.51171875 258.0234375 C122.28690691 243.48169713 127.45673221 227.98616985 130.4375 211.3125 C130.63085938 210.26191406 130.82421875 209.21132812 131.0234375 208.12890625 C132.77269636 192.00602033 132.44852557 175.06430083 128.4375 159.3125 C128.27652832 158.67022461 128.11555664 158.02794922 127.94970703 157.36621094 C122.21524274 135.16650767 110.57973537 116.2915154 95.4375 99.3125 C94.79296875 98.58289063 94.1484375 97.85328125 93.484375 97.1015625 C71.25210115 73.41935775 37.64988555 60.37308331 5.66015625 59.09375 C-28.31179909 58.21338933 -59.61333741 69.45613216 -85.5625 91.3125 Z " fill="#000000" transform="translate(189.5625,-0.31250000000000006)"/>
</svg>
